<?xml version="1.0" encoding="UTF-8" standalone="no"?>
<svg fill="none" height="131"
     width="309"
     id="svg2519"
     version="1.1"
     viewBox="0 0 2085.5076 300"
     sodipodi:docname="tynsci-logo-white.svg"
     inkscape:version="1.2.1 (9c6d41e410, 2022-07-14)"
     xmlns:inkscape="http://www.inkscape.org/namespaces/inkscape"
     xmlns:sodipodi="http://sodipodi.sourceforge.net/DTD/sodipodi-0.dtd"
     xmlns="http://www.w3.org/2000/svg"
     xmlns:rdf="http://www.w3.org/1999/02/22-rdf-syntax-ns#"
     xmlns:cc="http://creativecommons.org/ns#"
     xmlns:dc="http://purl.org/dc/elements/1.1/">
    <sodipodi:namedview
            id="namedview4151"
            pagecolor="#ffffff"
            bordercolor="#666666"
            borderopacity="1.0"
            inkscape:showpageshadow="2"
            inkscape:pageopacity="0.0"
            inkscape:pagecheckerboard="0"
            inkscape:deskcolor="#d1d1d1"
            showgrid="true"
            inkscape:zoom="0.55978377"
            inkscape:cx="1448.7737"
            inkscape:cy="132.1939"
            inkscape:window-width="3840"
            inkscape:window-height="2160"
            inkscape:window-x="0"
            inkscape:window-y="0"
            inkscape:window-maximized="1"
            inkscape:current-layer="svg2519">
        <inkscape:grid
                type="xygrid"
                id="grid8403"/>
    </sodipodi:namedview>
    <metadata
            id="metadata2523">
        <rdf:RDF>
            <cc:Work
                    rdf:about="">
                <dc:format>image/svg+xml</dc:format>
                <dc:type
                        rdf:resource="http://purl.org/dc/dcmitype/StillImage"/>
            </cc:Work>
        </rdf:RDF>
    </metadata>
    <defs
            id="defs2504">
        <rect
                id="rect887"
                height="73.469093"
                width="1424.3434"
                y="227.56204"
                x="420.29248"/>
        <rect
                id="rect849"
                height="1252.6677"
                width="2798.3232"
                y="98.279861"
                x="983.90332"/>
        <rect
                x="958.23383"
                y="38.037586"
                width="1236.6533"
                height="652.78235"
                id="rect847"/>
        <style
                id="style2502">.cls-1{fill:#00c1ae;}.cls-2{fill:#fff;}
        </style>
        <rect
                id="rect849-3"
                height="1252.6677"
                width="2798.3232"
                y="98.279861"
                x="983.90332"/>
        <rect
                id="rect859"
                height="1252.6677"
                width="2798.3232"
                y="98.279861"
                x="983.90332"/>
    </defs>
    <g
            aria-label="TYNES      SCIENCE"
            transform="matrix(1.1584814,0,0,1.1584814,-1143.1937,-34.163585)"
            id="text847"
            style="font-weight:bold;font-size:170.667px;line-height:0.9;font-family:'TeX Gyre Pagella';-inkscape-font-specification:'TeX Gyre Pagella Bold';letter-spacing:12.18px;word-spacing:-0.34528px;white-space:pre;shape-inside:url(#rect849);opacity:1;fill:#ffffff;stroke-width:0.99958446;stroke-dasharray:none;fill-opacity:1">
        <path
                d="m 1094.8359,101.00997 -1.024,-0.85334 c -17.5787,0.34134 -35.3281,0.512 -52.9068,0.512 -17.7493,0 -35.328,-0.17066 -53.07742,-0.512 l -1.024,0.85334 c 1.36534,8.19201 1.70667,14.16536 2.21867,27.13605 h 6.82668 L 996.70237,116.37 c 0.512,-6.82668 6.82663,-5.63201 12.11733,-5.63201 h 19.9681 v 82.60283 c 0,15.18936 -0.1707,15.5307 -8.192,16.21336 l -6.3147,0.512 v 6.82669 c 8.8747,-0.34134 17.5787,-0.51201 26.4534,-0.51201 8.8746,0 17.7493,0.17067 26.624,0.51201 v -6.82669 l -6.3147,-0.512 c -8.0213,-0.68266 -8.192,-1.024 -8.192,-16.21336 v -82.60283 h 19.9681 c 8.3626,0 9.5573,-1.19467 12.1173,5.63201 l 0.8533,11.77602 h 6.8267 c 0.3414,-12.97069 0.8534,-18.94404 2.2187,-27.13605 z"
                id="path20"
                style="stroke-width:0.99958446;stroke-dasharray:none;fill:#ffffff;fill-opacity:1"/>
        <path
                d="m 1227.6775,103.91131 v -3.24268 h -13.1413 l -32.0854,54.95478 -18.2614,-34.6454 c -6.8267,-12.9707 -11.6053,-18.60271 -19.456,-23.210716 l -27.1361,6.144016 v 6.31468 c 8.704,0 12.9707,2.048 22.1867,17.0667 l 17.2374,27.81872 c 2.9013,4.60801 4.7787,8.36268 7.5094,14.50669 v 23.72272 c 0,15.18936 -0.1707,15.5307 -8.1921,16.21336 l -6.3146,0.512 v 6.82669 c 8.8746,-0.34134 17.5787,-0.51201 26.4533,-0.51201 8.8747,0 17.7494,0.17067 26.6241,0.51201 v -6.82669 l -6.3147,-0.512 c -8.0213,-0.68266 -8.192,-1.024 -8.192,-16.21336 V 165.5221 c 3.2427,-7.33869 5.9733,-12.4587 9.0454,-17.0667 z"
                id="path22"
                style="stroke-width:0.99958446;stroke-dasharray:none;fill:#ffffff;fill-opacity:1"/>
        <path
                d="m 1377.2445,106.47131 v -6.31468 c -6.4854,0.34134 -12.9707,0.512 -19.4561,0.512 -6.4853,0 -13.1413,-0.17066 -19.6267,-0.512 v 6.31468 l 6.3147,0.512 c 7.68,0.68267 8.192,1.70667 8.192,16.72537 v 61.26945 l -53.2481,-62.12279 c -3.584,-4.096 -6.656,-8.19201 -17.5787,-22.69871 -4.7787,0.34134 -9.5574,0.512 -14.336,0.512 -6.8267,0 -13.6534,-0.17066 -20.4801,-0.512 v 6.31468 l 6.3147,0.512 c 7.68,0.68267 8.192,1.70667 8.192,16.72537 v 69.63214 c 0,15.01869 -0.512,16.0427 -8.192,16.72536 l -6.3147,0.51201 v 6.31468 c 6.4854,-0.34134 13.1414,-0.51201 19.6267,-0.51201 6.4854,0 12.9707,0.17067 19.4561,0.51201 v -6.31468 l -6.3147,-0.51201 c -7.68,-0.68266 -8.192,-1.536 -8.192,-16.72536 v -67.07214 l 55.6374,66.90147 20.8214,23.72272 13.9947,2.21867 1.1947,-0.68267 -0.512,-17.23737 v -77.48282 c 0,-15.0187 0.512,-16.0427 8.192,-16.72537 z"
                id="path24"
                style="stroke-width:0.99958446;stroke-dasharray:none;fill:#ffffff;fill-opacity:1"/>
        <path
                d="m 1493.8727,188.05014 h -6.656 l -3.9254,16.0427 c -0.3413,1.36534 -9.3866,2.90134 -17.2373,2.90134 l -25.4294,-0.512 v -45.56809 c 4.7787,-0.34134 7.68,-0.512 11.4347,-0.512 h 11.264 c 6.4853,0 9.216,1.87733 9.728,6.31467 l 1.024,8.53336 h 6.8267 c -0.3413,-6.14402 -0.512,-12.28803 -0.512,-18.43204 0,-6.14401 0.1707,-12.11736 0.512,-18.26137 h -6.8267 l -1.024,9.72802 c -0.3413,2.73067 -2.56,3.58401 -9.728,3.58401 h -11.264 c -5.632,0 -8.0214,0 -11.4347,-0.34134 v -40.96008 l 24.7467,-0.512 c 9.3867,0 16.5547,1.36533 16.7254,3.24267 l 1.3653,12.80003 h 6.144 l 2.3894,-24.23472 -1.024,-1.19467 c -6.3147,-0.34133 -9.8987,-0.512 -16.2134,-0.512 -13.4827,0 -26.7947,0.512 -40.2774,0.512 -10.752,0 -21.6747,-0.17066 -32.4268,-0.512 v 6.31468 l 6.3147,0.512 c 7.68,0.68267 8.192,1.70667 8.192,16.72537 v 76.45882 c 0,5.80268 -0.8533,8.36268 -3.4133,9.72802 l -5.4613,3.072 v 3.92535 c 6.9973,-0.34134 13.9946,-0.51201 20.992,-0.51201 12.8,0 25.7707,0.51201 38.5707,0.51201 9.3867,0 14.1654,0 23.8934,-0.51201 l 0.8534,-1.36533 z"
                id="path26"
                style="stroke-width:0.99958446;stroke-dasharray:none;fill:#ffffff;fill-opacity:1"/>
        <path
                d="m 1607.2583,178.83412 c 0,-15.36003 -8.8747,-25.60005 -25.7708,-30.03739 l -19.456,-5.12001 c -12.6294,-3.41334 -18.0907,-8.53335 -18.0907,-17.23737 0,-11.94669 9.216,-19.96804 22.8694,-19.96804 9.0453,0 16.7254,3.07201 23.2107,9.38669 l 1.024,13.99469 h 6.9973 c 0,-11.09335 0.8534,-19.28537 2.3894,-24.23471 l -0.8534,-2.04801 c -11.4346,-4.266673 -20.3093,-5.802676 -31.5733,-5.802676 -28.5014,0 -45.2268,13.653356 -45.2268,36.693406 0,14.5067 8.704,25.25872 24.9174,30.03739 l 23.8934,7.16802 c 9.5573,2.90134 14.1653,8.19201 14.1653,16.38403 0,12.62936 -10.9227,22.01604 -25.6,22.01604 -11.6054,0 -22.5281,-5.12001 -27.9894,-13.14135 l -1.1947,-15.0187 h -6.8267 c 0,12.80002 -0.6826,19.79737 -2.56,29.52539 12.6294,5.63201 22.5281,7.85068 35.4988,7.85068 30.5494,0 50.1761,-15.70136 50.1761,-40.44808 z"
                id="path28"
                style="stroke-width:0.99958446;stroke-dasharray:none;fill:#ffffff;fill-opacity:1"/>
        <path
                d="m 2050.7246,178.83412 c 0,-15.36003 -8.8746,-25.60005 -25.7707,-30.03739 l -19.456,-5.12001 c -12.6294,-3.41334 -18.0907,-8.53335 -18.0907,-17.23737 0,-11.94669 9.216,-19.96804 22.8694,-19.96804 9.0453,0 16.7253,3.07201 23.2107,9.38669 l 1.024,13.99469 h 6.9973 c 0,-11.09335 0.8534,-19.28537 2.3894,-24.23471 l -0.8534,-2.04801 c -11.4347,-4.266673 -20.3094,-5.802676 -31.5734,-5.802676 -28.5014,0 -45.2267,13.653356 -45.2267,36.693406 0,14.5067 8.704,25.25872 24.9173,30.03739 l 23.8934,7.16802 c 9.5574,2.90134 14.1654,8.19201 14.1654,16.38403 0,12.62936 -10.9227,22.01604 -25.6001,22.01604 -11.6053,0 -22.528,-5.12001 -27.9893,-13.14135 l -1.1947,-15.0187 h -6.8267 c 0,12.80002 -0.6827,19.79737 -2.56,29.52539 12.6294,5.63201 22.528,7.85068 35.4987,7.85068 30.5494,0 50.1761,-15.70136 50.1761,-40.44808 z"
                id="path30"
                style="stroke-width:0.99958446;stroke-dasharray:none;fill:#ffffff;fill-opacity:1"/>
        <path
                d="m 2190.3929,107.66598 -1.024,-1.87734 c -15.5307,-6.144009 -25.0881,-8.021346 -39.9361,-8.021346 -43.1788,0 -70.1442,22.869376 -70.1442,59.392116 0,38.22941 26.2828,62.12279 68.4375,62.12279 15.7014,0 25.7707,-2.38933 38.4001,-9.38668 l 3.7547,-8.36269 -2.048,-2.048 c -11.0934,5.80268 -22.0161,8.70402 -33.2801,8.70402 -30.0374,0 -49.6641,-21.16271 -49.6641,-53.41878 0,-29.35472 16.5547,-47.44542 43.6908,-47.44542 12.9706,0 21.1627,3.24267 30.3787,11.77602 l 0.8533,14.67736 h 6.656 c 1.8774,-16.38403 2.3894,-19.6267 3.9254,-26.11205 z"
                id="path32"
                style="stroke-width:0.99958446;stroke-dasharray:none;fill:#ffffff;fill-opacity:1"/>
        <path
                d="m 2266.9144,216.89287 v -6.82669 l -6.3147,-0.512 c -8.0214,-0.68266 -8.192,-1.024 -8.192,-16.21336 v -69.63214 c 0,-15.18936 0.1706,-15.5307 8.192,-16.21337 l 6.3147,-0.512 v -6.82668 c -8.8747,0.34134 -17.7494,0.512 -26.6241,0.512 -8.8747,0 -17.5787,-0.17066 -26.4534,-0.512 v 6.82668 l 6.3147,0.512 c 8.0214,0.68267 8.192,1.02401 8.192,16.21337 v 69.63214 c 0,15.18936 -0.1706,15.5307 -8.192,16.21336 l -6.3147,0.512 v 6.82669 c 8.8747,-0.34134 17.5787,-0.51201 26.4534,-0.51201 8.8747,0 17.7494,0.17067 26.6241,0.51201 z"
                id="path34"
                style="stroke-width:0.99958446;stroke-dasharray:none;fill:#ffffff;fill-opacity:1"/>
        <path
                d="m 2384.2252,188.05014 h -6.656 l -3.9253,16.0427 c -0.3414,1.36534 -9.3867,2.90134 -17.2374,2.90134 l -25.4294,-0.512 v -45.56809 c 4.7787,-0.34134 7.68,-0.512 11.4347,-0.512 h 11.264 c 6.4854,0 9.2161,1.87733 9.7281,6.31467 l 1.024,8.53336 h 6.8266 c -0.3413,-6.14402 -0.512,-12.28803 -0.512,-18.43204 0,-6.14401 0.1707,-12.11736 0.512,-18.26137 h -6.8266 l -1.024,9.72802 c -0.3414,2.73067 -2.5601,3.58401 -9.7281,3.58401 h -11.264 c -5.632,0 -8.0213,0 -11.4347,-0.34134 v -40.96008 l 24.7467,-0.512 c 9.3867,0 16.5547,1.36533 16.7254,3.24267 l 1.3653,12.80003 h 6.1441 l 2.3893,-24.23472 -1.024,-1.19467 c -6.3147,-0.34133 -9.8987,-0.512 -16.2134,-0.512 -13.4827,0 -26.7947,0.512 -40.2774,0.512 -10.752,0 -21.6747,-0.17066 -32.4267,-0.512 v 6.31468 l 6.3147,0.512 c 7.68,0.68267 8.192,1.70667 8.192,16.72537 v 76.45882 c 0,5.80268 -0.8534,8.36268 -3.4134,9.72802 l -5.4613,3.072 v 3.92535 c 6.9973,-0.34134 13.9947,-0.51201 20.992,-0.51201 12.8001,0 25.7708,0.51201 38.5708,0.51201 9.3867,0 14.1653,0 23.8934,-0.51201 l 0.8533,-1.36533 z"
                id="path36"
                style="stroke-width:0.99958446;stroke-dasharray:none;fill:#ffffff;fill-opacity:1"/>
        <path
                d="m 2538.4002,106.47131 v -6.31468 c -6.4854,0.34134 -12.9707,0.512 -19.4561,0.512 -6.4853,0 -13.1413,-0.17066 -19.6267,-0.512 v 6.31468 l 6.3147,0.512 c 7.68,0.68267 8.192,1.70667 8.192,16.72537 v 61.26945 l -53.2481,-62.12279 c -3.584,-4.096 -6.656,-8.19201 -17.5787,-22.69871 -4.7787,0.34134 -9.5574,0.512 -14.336,0.512 -6.8267,0 -13.6534,-0.17066 -20.4801,-0.512 v 6.31468 l 6.3147,0.512 c 7.68,0.68267 8.192,1.70667 8.192,16.72537 v 69.63214 c 0,15.01869 -0.512,16.0427 -8.192,16.72536 l -6.3147,0.51201 v 6.31468 c 6.4854,-0.34134 13.1414,-0.51201 19.6267,-0.51201 6.4854,0 12.9707,0.17067 19.4561,0.51201 v -6.31468 l -6.3147,-0.51201 c -7.68,-0.68266 -8.192,-1.536 -8.192,-16.72536 v -67.07214 l 55.6374,66.90147 20.8214,23.72272 13.9947,2.21867 1.1947,-0.68267 -0.512,-17.23737 v -77.48282 c 0,-15.0187 0.512,-16.0427 8.192,-16.72537 z"
                id="path38"
                style="stroke-width:0.99958446;stroke-dasharray:none;fill:#ffffff;fill-opacity:1"/>
        <path
                d="m 2671.7537,107.66598 -1.024,-1.87734 c -15.5307,-6.144009 -25.088,-8.021346 -39.9361,-8.021346 -43.1787,0 -70.1441,22.869376 -70.1441,59.392116 0,38.22941 26.2827,62.12279 68.4375,62.12279 15.7013,0 25.7707,-2.38933 38.4,-9.38668 l 3.7547,-8.36269 -2.048,-2.048 c -11.0934,5.80268 -22.016,8.70402 -33.2801,8.70402 -30.0374,0 -49.6641,-21.16271 -49.6641,-53.41878 0,-29.35472 16.5547,-47.44542 43.6908,-47.44542 12.9707,0 21.1627,3.24267 30.3787,11.77602 l 0.8534,14.67736 h 6.656 c 1.8773,-16.38403 2.3893,-19.6267 3.9253,-26.11205 z"
                id="path40"
                style="stroke-width:0.99958446;stroke-dasharray:none;fill:#ffffff;fill-opacity:1"/>
        <path
                d="m 2787.0166,188.05014 h -6.656 l -3.9253,16.0427 c -0.3414,1.36534 -9.3867,2.90134 -17.2374,2.90134 l -25.4294,-0.512 v -45.56809 c 4.7787,-0.34134 7.68,-0.512 11.4347,-0.512 h 11.264 c 6.4854,0 9.216,1.87733 9.728,6.31467 l 1.024,8.53336 h 6.8267 c -0.3413,-6.14402 -0.512,-12.28803 -0.512,-18.43204 0,-6.14401 0.1707,-12.11736 0.512,-18.26137 h -6.8267 l -1.024,9.72802 c -0.3413,2.73067 -2.56,3.58401 -9.728,3.58401 h -11.264 c -5.632,0 -8.0214,0 -11.4347,-0.34134 v -40.96008 l 24.7467,-0.512 c 9.3867,0 16.5547,1.36533 16.7254,3.24267 l 1.3653,12.80003 h 6.144 l 2.3894,-24.23472 -1.024,-1.19467 c -6.3147,-0.34133 -9.8987,-0.512 -16.2134,-0.512 -13.4827,0 -26.7947,0.512 -40.2774,0.512 -10.752,0 -21.6747,-0.17066 -32.4267,-0.512 v 6.31468 l 6.3146,0.512 c 7.6801,0.68267 8.1921,1.70667 8.1921,16.72537 v 76.45882 c 0,5.80268 -0.8534,8.36268 -3.4134,9.72802 l -5.4613,3.072 v 3.92535 c 6.9973,-0.34134 13.9947,-0.51201 20.992,-0.51201 12.8,0 25.7707,0.51201 38.5708,0.51201 9.3866,0 14.1653,0 23.8933,-0.51201 l 0.8534,-1.36533 z"
                id="path42"
                style="stroke-width:0.99958446;stroke-dasharray:none;fill:#ffffff;fill-opacity:1"/>
    </g>
    <g
            transform="translate(770.86599)"
            id="text845"
            style="font-size:40px;line-height:1.25;font-family:montserrat;-inkscape-font-specification:montserrat;white-space:pre;shape-inside:url(#rect847);opacity:1;fill:#003100"/>
    <g
            transform="matrix(1.1584814,0,0,1.1584814,-1088.2109,227.75547)"
            id="text847-6"
            style="font-weight:bold;font-size:170.667px;line-height:0.9;font-family:'TeX Gyre Pagella';-inkscape-font-specification:'TeX Gyre Pagella Bold';letter-spacing:12.18px;word-spacing:-0.34528px;white-space:pre;shape-inside:url(#rect849-3);opacity:1;fill:#003100"/>
    <path
            sodipodi:type="star"
            style="fill:none;stroke:#ffffff;stroke-width:5.55625;stroke-dasharray:none;stroke-opacity:1"
            id="path35961"
            inkscape:flatsided="true"
            sodipodi:sides="6"
            sodipodi:cx="41.289055"
            sodipodi:cy="27.32213"
            sodipodi:r1="34.555809"
            sodipodi:r2="29.926208"
            sodipodi:arg1="0.51902491"
            sodipodi:arg2="1.0426237"
            inkscape:rounded="0"
            inkscape:randomized="0"
            d="M 71.293977,44.462976 41.447108,61.877578 11.442186,44.736732 11.284133,10.181284 41.131002,-7.2333174 71.135924,9.9075284 Z"
            transform="matrix(3.947169,0,0,3.947169,770.42026,42.194454)"/>
    <path
            style="fill:none;stroke:#ffffff;stroke-width:12.5322;stroke-linecap:butt;stroke-linejoin:miter;stroke-dasharray:none;stroke-opacity:1"
            d="M 823.40981,86.955011 937.15522,286.2146"
            id="path37056"
            sodipodi:nodetypes="cc"/>
    <path
            style="fill:none;stroke:#ffffff;stroke-width:12.5322;stroke-linecap:butt;stroke-linejoin:miter;stroke-dasharray:none;stroke-opacity:1"
            d="m 818.10649,197.47022 c 71.87339,-23.97577 95.58115,34.83554 227.50401,-92.35302"
            id="path37056-6"
            sodipodi:nodetypes="cc"/>
</svg>
